999
"DXF R12 Output" (www.mydxf.blogspot.com)
 0 
SECTION
 2 
HEADER
 9 
$ACADVER
 1 
AC1009
 9 
$EXTMIN
 10 
 0 
 20 
 0 
 9 
$EXTMAX
 10 
 8.5 
 20 
 11 
 0 
ENDSEC
 0 
SECTION
 2 
ENTITIES
0
POLYLINE
8
BLACK
62
7
70
0
10
0.000000
20
0.000000
66
1
0
VERTEX
8
BLACK
10
82.499890
20
-77.750070
70
0
0
VERTEX
8
BLACK
10
82.499890
20
-79.250255
70
0
0
SEQEND
8
BLACK
0
POLYLINE
8
BLACK
62
7
70
0
10
0.000000
20
0.000000
66
1
0
VERTEX
8
BLACK
10
82.499890
20
-79.250255
70
0
0
VERTEX
8
BLACK
10
70.499992
20
-80.750441
70
0
0
SEQEND
8
BLACK
0
POLYLINE
8
BLACK
62
7
70
0
10
0.000000
20
0.000000
66
1
0
VERTEX
8
BLACK
10
70.499992
20
-80.750441
70
0
0
VERTEX
8
BLACK
10
70.499992
20
-76.249884
70
0
0
SEQEND
8
BLACK
0
POLYLINE
8
BLACK
62
7
70
0
10
0.000000
20
0.000000
66
1
0
VERTEX
8
BLACK
10
70.499992
20
-76.249884
70
0
0
VERTEX
8
BLACK
10
82.499890
20
-77.750070
70
0
0
SEQEND
8
BLACK
0
POLYLINE
8
BLACK
62
7
70
0
10
0.000000
20
0.000000
66
1
0
VERTEX
8
BLACK
10
82.499890
20
-72.749451
70
0
0
VERTEX
8
BLACK
10
82.499890
20
-74.249636
70
0
0
SEQEND
8
BLACK
0
POLYLINE
8
BLACK
62
7
70
0
10
0.000000
20
0.000000
66
1
0
VERTEX
8
BLACK
10
82.499890
20
-74.249636
70
0
0
VERTEX
8
BLACK
10
70.499992
20
-75.749822
70
0
0
SEQEND
8
BLACK
0
POLYLINE
8
BLACK
62
7
70
0
10
0.000000
20
0.000000
66
1
0
VERTEX
8
BLACK
10
70.499992
20
-75.749822
70
0
0
VERTEX
8
BLACK
10
70.499992
20
-71.249265
70
0
0
SEQEND
8
BLACK
0
POLYLINE
8
BLACK
62
7
70
0
10
0.000000
20
0.000000
66
1
0
VERTEX
8
BLACK
10
70.499992
20
-71.249265
70
0
0
VERTEX
8
BLACK
10
82.499890
20
-72.749451
70
0
0
SEQEND
8
BLACK
0
POLYLINE
8
BLACK
62
7
70
0
10
0.000000
20
0.000000
66
1
0
VERTEX
8
BLACK
10
82.499890
20
-67.748832
70
0
0
VERTEX
8
BLACK
10
82.499890
20
-69.249018
70
0
0
SEQEND
8
BLACK
0
POLYLINE
8
BLACK
62
7
70
0
10
0.000000
20
0.000000
66
1
0
VERTEX
8
BLACK
10
82.499890
20
-69.249018
70
0
0
VERTEX
8
BLACK
10
70.499992
20
-70.749203
70
0
0
SEQEND
8
BLACK
0
POLYLINE
8
BLACK
62
7
70
0
10
0.000000
20
0.000000
66
1
0
VERTEX
8
BLACK
10
70.499992
20
-70.749203
70
0
0
VERTEX
8
BLACK
10
70.499992
20
-66.248647
70
0
0
SEQEND
8
BLACK
0
POLYLINE
8
BLACK
62
7
70
0
10
0.000000
20
0.000000
66
1
0
VERTEX
8
BLACK
10
70.499992
20
-66.248647
70
0
0
VERTEX
8
BLACK
10
82.499890
20
-67.748832
70
0
0
SEQEND
8
BLACK
0
POLYLINE
8
BLACK
62
7
70
0
10
0.000000
20
0.000000
66
1
0
VERTEX
8
BLACK
10
82.499890
20
-62.750859
70
0
0
VERTEX
8
BLACK
10
82.499890
20
-64.248399
70
0
0
SEQEND
8
BLACK
0
POLYLINE
8
BLACK
62
7
70
0
10
0.000000
20
0.000000
66
1
0
VERTEX
8
BLACK
10
82.499890
20
-64.248399
70
0
0
VERTEX
8
BLACK
10
70.499992
20
-65.748585
70
0
0
SEQEND
8
BLACK
0
POLYLINE
8
BLACK
62
7
70
0
10
0.000000
20
0.000000
66
1
0
VERTEX
8
BLACK
10
70.499992
20
-65.748585
70
0
0
VERTEX
8
BLACK
10
70.499992
20
-61.250674
70
0
0
SEQEND
8
BLACK
0
POLYLINE
8
BLACK
62
7
70
0
10
0.000000
20
0.000000
66
1
0
VERTEX
8
BLACK
10
70.499992
20
-61.250674
70
0
0
VERTEX
8
BLACK
10
82.499890
20
-62.750859
70
0
0
SEQEND
8
BLACK
0
POLYLINE
8
BLACK
62
7
70
0
10
0.000000
20
0.000000
66
1
0
VERTEX
8
BLACK
10
82.499890
20
-57.750241
70
0
0
VERTEX
8
BLACK
10
82.499890
20
-59.250426
70
0
0
SEQEND
8
BLACK
0
POLYLINE
8
BLACK
62
7
70
0
10
0.000000
20
0.000000
66
1
0
VERTEX
8
BLACK
10
82.499890
20
-59.250426
70
0
0
VERTEX
8
BLACK
10
70.499992
20
-60.750612
70
0
0
SEQEND
8
BLACK
0
POLYLINE
8
BLACK
62
7
70
0
10
0.000000
20
0.000000
66
1
0
VERTEX
8
BLACK
10
70.499992
20
-60.750612
70
0
0
VERTEX
8
BLACK
10
70.499992
20
-56.250055
70
0
0
SEQEND
8
BLACK
0
POLYLINE
8
BLACK
62
7
70
0
10
0.000000
20
0.000000
66
1
0
VERTEX
8
BLACK
10
70.499992
20
-56.250055
70
0
0
VERTEX
8
BLACK
10
82.499890
20
-57.750241
70
0
0
SEQEND
8
BLACK
0
POLYLINE
8
BLACK
62
7
70
0
10
0.000000
20
0.000000
66
1
0
VERTEX
8
BLACK
10
82.499890
20
-52.749622
70
0
0
VERTEX
8
BLACK
10
82.499890
20
-54.249807
70
0
0
SEQEND
8
BLACK
0
POLYLINE
8
BLACK
62
7
70
0
10
0.000000
20
0.000000
66
1
0
VERTEX
8
BLACK
10
82.499890
20
-54.249807
70
0
0
VERTEX
8
BLACK
10
70.499992
20
-55.749993
70
0
0
SEQEND
8
BLACK
0
POLYLINE
8
BLACK
62
7
70
0
10
0.000000
20
0.000000
66
1
0
VERTEX
8
BLACK
10
70.499992
20
-55.749993
70
0
0
VERTEX
8
BLACK
10
70.499992
20
-51.249436
70
0
0
SEQEND
8
BLACK
0
POLYLINE
8
BLACK
62
7
70
0
10
0.000000
20
0.000000
66
1
0
VERTEX
8
BLACK
10
70.499992
20
-51.249436
70
0
0
VERTEX
8
BLACK
10
82.499890
20
-52.749622
70
0
0
SEQEND
8
BLACK
0
POLYLINE
8
BLACK
62
7
70
0
10
0.000000
20
0.000000
66
1
0
VERTEX
8
BLACK
10
82.499890
20
-47.749003
70
0
0
VERTEX
8
BLACK
10
82.499890
20
-49.249189
70
0
0
SEQEND
8
BLACK
0
POLYLINE
8
BLACK
62
7
70
0
10
0.000000
20
0.000000
66
1
0
VERTEX
8
BLACK
10
82.499890
20
-49.249189
70
0
0
VERTEX
8
BLACK
10
70.499992
20
-50.749374
70
0
0
SEQEND
8
BLACK
0
POLYLINE
8
BLACK
62
7
70
0
10
0.000000
20
0.000000
66
1
0
VERTEX
8
BLACK
10
70.499992
20
-50.749374
70
0
0
VERTEX
8
BLACK
10
70.499992
20
-46.248818
70
0
0
SEQEND
8
BLACK
0
POLYLINE
8
BLACK
62
7
70
0
10
0.000000
20
0.000000
66
1
0
VERTEX
8
BLACK
10
70.499992
20
-46.248818
70
0
0
VERTEX
8
BLACK
10
82.499890
20
-47.749003
70
0
0
SEQEND
8
BLACK
0
POLYLINE
8
BLACK
62
7
70
0
10
0.000000
20
0.000000
66
1
0
VERTEX
8
BLACK
10
82.499890
20
-42.748384
70
0
0
VERTEX
8
BLACK
10
82.499890
20
-44.248570
70
0
0
SEQEND
8
BLACK
0
POLYLINE
8
BLACK
62
7
70
0
10
0.000000
20
0.000000
66
1
0
VERTEX
8
BLACK
10
82.499890
20
-44.248570
70
0
0
VERTEX
8
BLACK
10
70.499992
20
-45.748756
70
0
0
SEQEND
8
BLACK
0
POLYLINE
8
BLACK
62
7
70
0
10
0.000000
20
0.000000
66
1
0
VERTEX
8
BLACK
10
70.499992
20
-45.748756
70
0
0
VERTEX
8
BLACK
10
70.499992
20
-41.250845
70
0
0
SEQEND
8
BLACK
0
POLYLINE
8
BLACK
62
7
70
0
10
0.000000
20
0.000000
66
1
0
VERTEX
8
BLACK
10
70.499992
20
-41.250845
70
0
0
VERTEX
8
BLACK
10
82.499890
20
-42.748384
70
0
0
SEQEND
8
BLACK
0
POLYLINE
8
BLACK
62
7
70
0
10
0.000000
20
0.000000
66
1
0
VERTEX
8
BLACK
10
82.499890
20
-37.750412
70
0
0
VERTEX
8
BLACK
10
82.499890
20
-39.250597
70
0
0
SEQEND
8
BLACK
0
POLYLINE
8
BLACK
62
7
70
0
10
0.000000
20
0.000000
66
1
0
VERTEX
8
BLACK
10
82.499890
20
-39.250597
70
0
0
VERTEX
8
BLACK
10
70.499992
20
-40.750783
70
0
0
SEQEND
8
BLACK
0
POLYLINE
8
BLACK
62
7
70
0
10
0.000000
20
0.000000
66
1
0
VERTEX
8
BLACK
10
70.499992
20
-40.750783
70
0
0
VERTEX
8
BLACK
10
70.499992
20
-36.250226
70
0
0
SEQEND
8
BLACK
0
POLYLINE
8
BLACK
62
7
70
0
10
0.000000
20
0.000000
66
1
0
VERTEX
8
BLACK
10
70.499992
20
-36.250226
70
0
0
VERTEX
8
BLACK
10
82.499890
20
-37.750412
70
0
0
SEQEND
8
BLACK
0
POLYLINE
8
BLACK
62
7
70
0
10
0.000000
20
0.000000
66
1
0
VERTEX
8
BLACK
10
82.499890
20
-32.749793
70
0
0
VERTEX
8
BLACK
10
82.499890
20
-34.249979
70
0
0
SEQEND
8
BLACK
0
POLYLINE
8
BLACK
62
7
70
0
10
0.000000
20
0.000000
66
1
0
VERTEX
8
BLACK
10
82.499890
20
-34.249979
70
0
0
VERTEX
8
BLACK
10
70.499992
20
-35.750164
70
0
0
SEQEND
8
BLACK
0
POLYLINE
8
BLACK
62
7
70
0
10
0.000000
20
0.000000
66
1
0
VERTEX
8
BLACK
10
70.499992
20
-35.750164
70
0
0
VERTEX
8
BLACK
10
70.499992
20
-31.249607
70
0
0
SEQEND
8
BLACK
0
POLYLINE
8
BLACK
62
7
70
0
10
0.000000
20
0.000000
66
1
0
VERTEX
8
BLACK
10
70.499992
20
-31.249607
70
0
0
VERTEX
8
BLACK
10
82.499890
20
-32.749793
70
0
0
SEQEND
8
BLACK
0
POLYLINE
8
BLACK
62
7
70
0
10
0.000000
20
0.000000
66
1
0
VERTEX
8
BLACK
10
82.499890
20
-27.749174
70
0
0
VERTEX
8
BLACK
10
82.499890
20
-29.249360
70
0
0
SEQEND
8
BLACK
0
POLYLINE
8
BLACK
62
7
70
0
10
0.000000
20
0.000000
66
1
0
VERTEX
8
BLACK
10
82.499890
20
-29.249360
70
0
0
VERTEX
8
BLACK
10
70.499992
20
-30.749545
70
0
0
SEQEND
8
BLACK
0
POLYLINE
8
BLACK
62
7
70
0
10
0.000000
20
0.000000
66
1
0
VERTEX
8
BLACK
10
70.499992
20
-30.749545
70
0
0
VERTEX
8
BLACK
10
70.499992
20
-26.248989
70
0
0
SEQEND
8
BLACK
0
POLYLINE
8
BLACK
62
7
70
0
10
0.000000
20
0.000000
66
1
0
VERTEX
8
BLACK
10
70.499992
20
-26.248989
70
0
0
VERTEX
8
BLACK
10
82.499890
20
-27.749174
70
0
0
SEQEND
8
BLACK
0
POLYLINE
8
BLACK
62
7
70
0
10
0.000000
20
0.000000
66
1
0
VERTEX
8
BLACK
10
82.499890
20
-22.748556
70
0
0
VERTEX
8
BLACK
10
82.499890
20
-24.248741
70
0
0
SEQEND
8
BLACK
0
POLYLINE
8
BLACK
62
7
70
0
10
0.000000
20
0.000000
66
1
0
VERTEX
8
BLACK
10
82.499890
20
-24.248741
70
0
0
VERTEX
8
BLACK
10
70.499992
20
-25.748927
70
0
0
SEQEND
8
BLACK
0
POLYLINE
8
BLACK
62
7
70
0
10
0.000000
20
0.000000
66
1
0
VERTEX
8
BLACK
10
70.499992
20
-25.748927
70
0
0
VERTEX
8
BLACK
10
70.499992
20
-21.248370
70
0
0
SEQEND
8
BLACK
0
POLYLINE
8
BLACK
62
7
70
0
10
0.000000
20
0.000000
66
1
0
VERTEX
8
BLACK
10
70.499992
20
-21.248370
70
0
0
VERTEX
8
BLACK
10
82.499890
20
-22.748556
70
0
0
SEQEND
8
BLACK
0
POLYLINE
8
BLACK
62
7
70
0
10
0.000000
20
0.000000
66
1
0
VERTEX
8
BLACK
10
75.649905
20
-23.499596
70
0
0
VERTEX
8
BLACK
10
75.574905
20
-23.369693
70
0
0
VERTEX
8
BLACK
10
75.424905
20
-23.369693
70
0
0
VERTEX
8
BLACK
10
75.349905
20
-23.499596
70
0
0
VERTEX
8
BLACK
10
75.424905
20
-23.629500
70
0
0
VERTEX
8
BLACK
10
75.574905
20
-23.629500
70
0
0
VERTEX
8
BLACK
10
75.649905
20
-23.499596
70
0
0
VERTEX
8
BLACK
10
75.649905
20
-23.499596
70
0
0
SEQEND
8
BLACK
0
POLYLINE
8
BLACK
62
7
70
0
10
0.000000
20
0.000000
66
1
0
VERTEX
8
BLACK
10
75.649905
20
-33.499584
70
0
0
VERTEX
8
BLACK
10
75.574905
20
-33.369680
70
0
0
VERTEX
8
BLACK
10
75.424905
20
-33.369680
70
0
0
VERTEX
8
BLACK
10
75.349905
20
-33.499584
70
0
0
VERTEX
8
BLACK
10
75.424905
20
-33.629487
70
0
0
VERTEX
8
BLACK
10
75.574905
20
-33.629487
70
0
0
VERTEX
8
BLACK
10
75.649905
20
-33.499584
70
0
0
VERTEX
8
BLACK
10
75.649905
20
-33.499584
70
0
0
SEQEND
8
BLACK
0
POLYLINE
8
BLACK
62
7
70
0
10
0.000000
20
0.000000
66
1
0
VERTEX
8
BLACK
10
75.649905
20
-43.499571
70
0
0
VERTEX
8
BLACK
10
75.574905
20
-43.369667
70
0
0
VERTEX
8
BLACK
10
75.424905
20
-43.369667
70
0
0
VERTEX
8
BLACK
10
75.349905
20
-43.499571
70
0
0
VERTEX
8
BLACK
10
75.424905
20
-43.629475
70
0
0
VERTEX
8
BLACK
10
75.574905
20
-43.629475
70
0
0
VERTEX
8
BLACK
10
75.649905
20
-43.499571
70
0
0
VERTEX
8
BLACK
10
75.649905
20
-43.499571
70
0
0
SEQEND
8
BLACK
0
POLYLINE
8
BLACK
62
7
70
0
10
0.000000
20
0.000000
66
1
0
VERTEX
8
BLACK
10
75.649905
20
-53.499558
70
0
0
VERTEX
8
BLACK
10
75.574905
20
-53.369655
70
0
0
VERTEX
8
BLACK
10
75.424905
20
-53.369655
70
0
0
VERTEX
8
BLACK
10
75.349905
20
-53.499558
70
0
0
VERTEX
8
BLACK
10
75.424905
20
-53.629462
70
0
0
VERTEX
8
BLACK
10
75.574905
20
-53.629462
70
0
0
VERTEX
8
BLACK
10
75.649905
20
-53.499558
70
0
0
VERTEX
8
BLACK
10
75.649905
20
-53.499558
70
0
0
SEQEND
8
BLACK
0
POLYLINE
8
BLACK
62
7
70
0
10
0.000000
20
0.000000
66
1
0
VERTEX
8
BLACK
10
75.649905
20
-63.499546
70
0
0
VERTEX
8
BLACK
10
75.574905
20
-63.369642
70
0
0
VERTEX
8
BLACK
10
75.424905
20
-63.369642
70
0
0
VERTEX
8
BLACK
10
75.349905
20
-63.499546
70
0
0
VERTEX
8
BLACK
10
75.424905
20
-63.629449
70
0
0
VERTEX
8
BLACK
10
75.574905
20
-63.629449
70
0
0
VERTEX
8
BLACK
10
75.649905
20
-63.499546
70
0
0
VERTEX
8
BLACK
10
75.649905
20
-63.499546
70
0
0
SEQEND
8
BLACK
0
POLYLINE
8
BLACK
62
7
70
0
10
0.000000
20
0.000000
66
1
0
VERTEX
8
BLACK
10
75.649905
20
-73.499533
70
0
0
VERTEX
8
BLACK
10
75.574905
20
-73.369630
70
0
0
VERTEX
8
BLACK
10
75.424905
20
-73.369630
70
0
0
VERTEX
8
BLACK
10
75.349905
20
-73.499533
70
0
0
VERTEX
8
BLACK
10
75.424905
20
-73.629437
70
0
0
VERTEX
8
BLACK
10
75.574905
20
-73.629437
70
0
0
VERTEX
8
BLACK
10
75.649905
20
-73.499533
70
0
0
VERTEX
8
BLACK
10
75.649905
20
-73.499533
70
0
0
SEQEND
8
BLACK
0
POLYLINE
8
BLACK
62
7
70
0
10
0.000000
20
0.000000
66
1
0
VERTEX
8
BLACK
10
75.649905
20
-58.499552
70
0
0
VERTEX
8
BLACK
10
75.574905
20
-58.369648
70
0
0
VERTEX
8
BLACK
10
75.424905
20
-58.369648
70
0
0
VERTEX
8
BLACK
10
75.349905
20
-58.499552
70
0
0
VERTEX
8
BLACK
10
75.424905
20
-58.629456
70
0
0
VERTEX
8
BLACK
10
75.574905
20
-58.629456
70
0
0
VERTEX
8
BLACK
10
75.649905
20
-58.499552
70
0
0
VERTEX
8
BLACK
10
75.649905
20
-58.499552
70
0
0
SEQEND
8
BLACK
0
POLYLINE
8
BLACK
62
7
70
0
10
0.000000
20
0.000000
66
1
0
VERTEX
8
BLACK
10
75.649905
20
-68.499540
70
0
0
VERTEX
8
BLACK
10
75.574905
20
-68.369636
70
0
0
VERTEX
8
BLACK
10
75.424905
20
-68.369636
70
0
0
VERTEX
8
BLACK
10
75.349905
20
-68.499540
70
0
0
VERTEX
8
BLACK
10
75.424905
20
-68.629443
70
0
0
VERTEX
8
BLACK
10
75.574905
20
-68.629443
70
0
0
VERTEX
8
BLACK
10
75.649905
20
-68.499540
70
0
0
VERTEX
8
BLACK
10
75.649905
20
-68.499540
70
0
0
SEQEND
8
BLACK
0
POLYLINE
8
BLACK
62
7
70
0
10
0.000000
20
0.000000
66
1
0
VERTEX
8
BLACK
10
75.649905
20
-78.499527
70
0
0
VERTEX
8
BLACK
10
75.574905
20
-78.369623
70
0
0
VERTEX
8
BLACK
10
75.424905
20
-78.369623
70
0
0
VERTEX
8
BLACK
10
75.349905
20
-78.499527
70
0
0
VERTEX
8
BLACK
10
75.424905
20
-78.629430
70
0
0
VERTEX
8
BLACK
10
75.574905
20
-78.629430
70
0
0
VERTEX
8
BLACK
10
75.649905
20
-78.499527
70
0
0
VERTEX
8
BLACK
10
75.649905
20
-78.499527
70
0
0
SEQEND
8
BLACK
0
POLYLINE
8
BLACK
62
7
70
0
10
0.000000
20
0.000000
66
1
0
VERTEX
8
BLACK
10
75.649905
20
-28.499590
70
0
0
VERTEX
8
BLACK
10
75.574905
20
-28.369686
70
0
0
VERTEX
8
BLACK
10
75.424905
20
-28.369686
70
0
0
VERTEX
8
BLACK
10
75.349905
20
-28.499590
70
0
0
VERTEX
8
BLACK
10
75.424905
20
-28.629493
70
0
0
VERTEX
8
BLACK
10
75.574905
20
-28.629493
70
0
0
VERTEX
8
BLACK
10
75.649905
20
-28.499590
70
0
0
VERTEX
8
BLACK
10
75.649905
20
-28.499590
70
0
0
SEQEND
8
BLACK
0
POLYLINE
8
BLACK
62
7
70
0
10
0.000000
20
0.000000
66
1
0
VERTEX
8
BLACK
10
75.649905
20
-38.499577
70
0
0
VERTEX
8
BLACK
10
75.574905
20
-38.369674
70
0
0
VERTEX
8
BLACK
10
75.424905
20
-38.369674
70
0
0
VERTEX
8
BLACK
10
75.349905
20
-38.499577
70
0
0
VERTEX
8
BLACK
10
75.424905
20
-38.629481
70
0
0
VERTEX
8
BLACK
10
75.574905
20
-38.629481
70
0
0
VERTEX
8
BLACK
10
75.649905
20
-38.499577
70
0
0
VERTEX
8
BLACK
10
75.649905
20
-38.499577
70
0
0
SEQEND
8
BLACK
0
POLYLINE
8
BLACK
62
7
70
0
10
0.000000
20
0.000000
66
1
0
VERTEX
8
BLACK
10
75.649905
20
-48.499565
70
0
0
VERTEX
8
BLACK
10
75.574905
20
-48.369661
70
0
0
VERTEX
8
BLACK
10
75.424905
20
-48.369661
70
0
0
VERTEX
8
BLACK
10
75.349905
20
-48.499565
70
0
0
VERTEX
8
BLACK
10
75.424905
20
-48.629468
70
0
0
VERTEX
8
BLACK
10
75.574905
20
-48.629468
70
0
0
VERTEX
8
BLACK
10
75.649905
20
-48.499565
70
0
0
VERTEX
8
BLACK
10
75.649905
20
-48.499565
70
0
0
SEQEND
8
BLACK
 0 
ENDSEC
 0 
EOF