999
"DXF R12 Output" (www.mydxf.blogspot.com)
 0 
SECTION
 2 
HEADER
 9 
$ACADVER
 1 
AC1009
 9 
$EXTMIN
 10 
 0 
 20 
 0 
 9 
$EXTMAX
 10 
 8.5 
 20 
 11 
 0 
ENDSEC
 0 
SECTION
 2 
ENTITIES
0
POLYLINE
8
BLACK
62
7
70
0
10
0.000000
20
0.000000
66
1
0
VERTEX
8
BLACK
10
110.999839
20
137.249505
70
0
0
VERTEX
8
BLACK
10
108.749823
20
137.500250
70
0
0
VERTEX
8
BLACK
10
108.749823
20
139.500498
70
0
0
VERTEX
8
BLACK
10
110.999839
20
139.749655
70
0
0
VERTEX
8
BLACK
10
111.353402
20
139.896291
70
0
0
VERTEX
8
BLACK
10
111.499872
20
140.249717
70
0
0
VERTEX
8
BLACK
10
111.499872
20
141.749797
70
0
0
VERTEX
8
BLACK
10
111.353402
20
142.103617
70
0
0
VERTEX
8
BLACK
10
110.999839
20
142.249832
70
0
0
VERTEX
8
BLACK
10
108.749823
20
142.500869
70
0
0
VERTEX
8
BLACK
10
108.749823
20
144.501116
70
0
0
VERTEX
8
BLACK
10
110.999839
20
144.749983
70
0
0
VERTEX
8
BLACK
10
111.353393
20
144.896542
70
0
0
VERTEX
8
BLACK
10
111.499872
20
145.249992
70
0
0
VERTEX
8
BLACK
10
111.499872
20
146.750098
70
0
0
VERTEX
8
BLACK
10
111.353402
20
147.103680
70
0
0
VERTEX
8
BLACK
10
110.999839
20
147.250134
70
0
0
VERTEX
8
BLACK
10
108.749823
20
147.498842
70
0
0
VERTEX
8
BLACK
10
108.749823
20
149.499089
70
0
0
VERTEX
8
BLACK
10
110.999839
20
149.750284
70
0
0
VERTEX
8
BLACK
10
111.353402
20
149.896618
70
0
0
VERTEX
8
BLACK
10
111.499872
20
150.250320
70
0
0
VERTEX
8
BLACK
10
111.499872
20
151.750426
70
0
0
VERTEX
8
BLACK
10
111.353393
20
152.103757
70
0
0
VERTEX
8
BLACK
10
110.999839
20
152.250435
70
0
0
VERTEX
8
BLACK
10
108.749823
20
152.499460
70
0
0
VERTEX
8
BLACK
10
108.749823
20
154.499708
70
0
0
VERTEX
8
BLACK
10
110.999839
20
154.750585
70
0
0
VERTEX
8
BLACK
10
111.353393
20
154.896860
70
0
0
VERTEX
8
BLACK
10
111.499872
20
155.250621
70
0
0
VERTEX
8
BLACK
10
111.499872
20
156.750727
70
0
0
VERTEX
8
BLACK
10
111.353402
20
157.103754
70
0
0
VERTEX
8
BLACK
10
110.999839
20
157.250127
70
0
0
VERTEX
8
BLACK
10
108.749823
20
157.499470
70
0
0
VERTEX
8
BLACK
10
108.749823
20
159.500327
70
0
0
VERTEX
8
BLACK
10
110.999839
20
159.749564
70
0
0
VERTEX
8
BLACK
10
111.353402
20
159.896225
70
0
0
VERTEX
8
BLACK
10
111.499872
20
160.249599
70
0
0
VERTEX
8
BLACK
10
111.499872
20
161.749705
70
0
0
VERTEX
8
BLACK
10
111.353402
20
162.103562
70
0
0
VERTEX
8
BLACK
10
110.999839
20
162.249714
70
0
0
VERTEX
8
BLACK
10
108.749823
20
162.500698
70
0
0
VERTEX
8
BLACK
10
108.749823
20
164.500945
70
0
0
VERTEX
8
BLACK
10
110.999839
20
164.749865
70
0
0
VERTEX
8
BLACK
10
111.353402
20
164.896497
70
0
0
VERTEX
8
BLACK
10
111.499872
20
165.249900
70
0
0
VERTEX
8
BLACK
10
111.499872
20
166.750007
70
0
0
VERTEX
8
BLACK
10
111.353402
20
167.103648
70
0
0
VERTEX
8
BLACK
10
110.999839
20
167.250042
70
0
0
VERTEX
8
BLACK
10
108.749823
20
167.501316
70
0
0
VERTEX
8
BLACK
10
108.749823
20
169.498918
70
0
0
VERTEX
8
BLACK
10
110.999839
20
169.750193
70
0
0
VERTEX
8
BLACK
10
111.353393
20
169.896573
70
0
0
VERTEX
8
BLACK
10
111.499872
20
170.250202
70
0
0
VERTEX
8
BLACK
10
111.499872
20
171.750308
70
0
0
VERTEX
8
BLACK
10
111.353402
20
172.103711
70
0
0
VERTEX
8
BLACK
10
110.999839
20
172.250343
70
0
0
VERTEX
8
BLACK
10
108.749823
20
172.499289
70
0
0
VERTEX
8
BLACK
10
108.749823
20
174.499537
70
0
0
VERTEX
8
BLACK
10
110.999839
20
174.750494
70
0
0
VERTEX
8
BLACK
10
111.353402
20
174.896798
70
0
0
VERTEX
8
BLACK
10
111.499872
20
175.250529
70
0
0
VERTEX
8
BLACK
10
111.499872
20
176.750635
70
0
0
VERTEX
8
BLACK
10
111.353393
20
177.103788
70
0
0
VERTEX
8
BLACK
10
110.999839
20
177.250644
70
0
0
VERTEX
8
BLACK
10
99.499797
20
178.750724
70
0
0
VERTEX
8
BLACK
10
99.110589
20
178.672051
70
0
0
VERTEX
8
BLACK
10
98.792748
20
178.457593
70
0
0
VERTEX
8
BLACK
10
98.578449
20
178.139689
70
0
0
VERTEX
8
BLACK
10
98.499867
20
177.750680
70
0
0
VERTEX
8
BLACK
10
98.499867
20
119.249738
70
0
0
VERTEX
8
BLACK
10
98.578449
20
118.860729
70
0
0
VERTEX
8
BLACK
10
98.792748
20
118.542941
70
0
0
VERTEX
8
BLACK
10
99.110589
20
118.328534
70
0
0
VERTEX
8
BLACK
10
99.499797
20
118.249667
70
0
0
VERTEX
8
BLACK
10
110.999839
20
119.749773
70
0
0
VERTEX
8
BLACK
10
111.353402
20
119.896376
70
0
0
VERTEX
8
BLACK
10
111.499872
20
120.249809
70
0
0
VERTEX
8
BLACK
10
111.499872
20
121.749889
70
0
0
VERTEX
8
BLACK
10
111.353402
20
122.103649
70
0
0
VERTEX
8
BLACK
10
110.999839
20
122.249924
70
0
0
VERTEX
8
BLACK
10
108.749823
20
122.501040
70
0
0
VERTEX
8
BLACK
10
108.749823
20
124.501287
70
0
0
VERTEX
8
BLACK
10
110.999839
20
124.750075
70
0
0
VERTEX
8
BLACK
10
111.353402
20
124.896588
70
0
0
VERTEX
8
BLACK
10
111.499872
20
125.250110
70
0
0
VERTEX
8
BLACK
10
111.499872
20
126.750216
70
0
0
VERTEX
8
BLACK
10
111.353393
20
127.103726
70
0
0
VERTEX
8
BLACK
10
110.999839
20
127.250225
70
0
0
VERTEX
8
BLACK
10
108.749823
20
127.499013
70
0
0
VERTEX
8
BLACK
10
108.749823
20
129.499260
70
0
0
VERTEX
8
BLACK
10
110.999839
20
129.750376
70
0
0
VERTEX
8
BLACK
10
111.353393
20
129.896661
70
0
0
VERTEX
8
BLACK
10
111.499872
20
130.250411
70
0
0
VERTEX
8
BLACK
10
111.499872
20
131.750491
70
0
0
VERTEX
8
BLACK
10
111.353402
20
132.103795
70
0
0
VERTEX
8
BLACK
10
110.999839
20
132.250526
70
0
0
VERTEX
8
BLACK
10
108.749823
20
132.499631
70
0
0
VERTEX
8
BLACK
10
108.749823
20
134.499879
70
0
0
VERTEX
8
BLACK
10
110.999839
20
134.750677
70
0
0
VERTEX
8
BLACK
10
111.353402
20
134.896932
70
0
0
VERTEX
8
BLACK
10
111.499869
20
135.250712
70
0
0
VERTEX
8
BLACK
10
111.499872
20
136.749496
70
0
0
VERTEX
8
BLACK
10
111.353393
20
137.103541
70
0
0
VERTEX
8
BLACK
10
110.999839
20
137.249505
70
0
0
VERTEX
8
BLACK
10
110.999839
20
137.249505
70
0
0
SEQEND
8
BLACK
0
POLYLINE
8
BLACK
62
7
70
0
10
0.000000
20
0.000000
66
1
0
VERTEX
8
BLACK
10
110.999818
20
146.749974
70
0
0
VERTEX
8
BLACK
10
110.999818
20
145.249788
70
0
0
VERTEX
8
BLACK
10
98.999921
20
143.749603
70
0
0
VERTEX
8
BLACK
10
98.999921
20
148.250159
70
0
0
VERTEX
8
BLACK
10
110.999818
20
146.749974
70
0
0
SEQEND
8
BLACK
0
POLYLINE
8
BLACK
62
7
70
0
10
0.000000
20
0.000000
66
1
0
VERTEX
8
BLACK
10
98.999921
20
128.250330
70
0
0
VERTEX
8
BLACK
10
110.999818
20
126.750145
70
0
0
VERTEX
8
BLACK
10
110.999818
20
125.249959
70
0
0
VERTEX
8
BLACK
10
98.999921
20
123.749774
70
0
0
VERTEX
8
BLACK
10
98.999921
20
128.250330
70
0
0
SEQEND
8
BLACK
0
POLYLINE
8
BLACK
62
7
70
0
10
0.000000
20
0.000000
66
1
0
VERTEX
8
BLACK
10
98.999921
20
158.248751
70
0
0
VERTEX
8
BLACK
10
110.999818
20
156.751211
70
0
0
VERTEX
8
BLACK
10
110.999818
20
155.251026
70
0
0
VERTEX
8
BLACK
10
98.999921
20
153.750840
70
0
0
VERTEX
8
BLACK
10
98.999921
20
158.248751
70
0
0
SEQEND
8
BLACK
0
POLYLINE
8
BLACK
62
7
70
0
10
0.000000
20
0.000000
66
1
0
VERTEX
8
BLACK
10
110.999818
20
151.750593
70
0
0
VERTEX
8
BLACK
10
110.999818
20
150.250407
70
0
0
VERTEX
8
BLACK
10
98.999921
20
148.750221
70
0
0
VERTEX
8
BLACK
10
98.999921
20
153.250778
70
0
0
VERTEX
8
BLACK
10
110.999818
20
151.750593
70
0
0
SEQEND
8
BLACK
0
POLYLINE
8
BLACK
62
7
70
0
10
0.000000
20
0.000000
66
1
0
VERTEX
8
BLACK
10
110.999818
20
161.749184
70
0
0
VERTEX
8
BLACK
10
110.999818
20
160.248999
70
0
0
VERTEX
8
BLACK
10
98.999921
20
158.748813
70
0
0
VERTEX
8
BLACK
10
98.999921
20
163.249370
70
0
0
VERTEX
8
BLACK
10
110.999818
20
161.749184
70
0
0
SEQEND
8
BLACK
0
POLYLINE
8
BLACK
62
7
70
0
10
0.000000
20
0.000000
66
1
0
VERTEX
8
BLACK
10
110.999818
20
130.250578
70
0
0
VERTEX
8
BLACK
10
98.999921
20
128.750392
70
0
0
VERTEX
8
BLACK
10
98.999921
20
133.250949
70
0
0
VERTEX
8
BLACK
10
110.999818
20
131.750764
70
0
0
VERTEX
8
BLACK
10
110.999818
20
130.250578
70
0
0
SEQEND
8
BLACK
0
POLYLINE
8
BLACK
62
7
70
0
10
0.000000
20
0.000000
66
1
0
VERTEX
8
BLACK
10
110.999818
20
140.249170
70
0
0
VERTEX
8
BLACK
10
98.999921
20
138.748984
70
0
0
VERTEX
8
BLACK
10
98.999921
20
143.249541
70
0
0
VERTEX
8
BLACK
10
110.999818
20
141.749355
70
0
0
VERTEX
8
BLACK
10
110.999818
20
140.249170
70
0
0
SEQEND
8
BLACK
0
POLYLINE
8
BLACK
62
7
70
0
10
0.000000
20
0.000000
66
1
0
VERTEX
8
BLACK
10
110.999818
20
166.749803
70
0
0
VERTEX
8
BLACK
10
110.999818
20
165.249617
70
0
0
VERTEX
8
BLACK
10
98.999921
20
163.749432
70
0
0
VERTEX
8
BLACK
10
98.999921
20
168.249988
70
0
0
VERTEX
8
BLACK
10
110.999818
20
166.749803
70
0
0
SEQEND
8
BLACK
0
POLYLINE
8
BLACK
62
7
70
0
10
0.000000
20
0.000000
66
1
0
VERTEX
8
BLACK
10
110.999818
20
170.250236
70
0
0
VERTEX
8
BLACK
10
98.999921
20
168.750050
70
0
0
VERTEX
8
BLACK
10
98.999921
20
173.250607
70
0
0
VERTEX
8
BLACK
10
110.999818
20
171.750422
70
0
0
VERTEX
8
BLACK
10
110.999818
20
170.250236
70
0
0
SEQEND
8
BLACK
0
POLYLINE
8
BLACK
62
7
70
0
10
0.000000
20
0.000000
66
1
0
VERTEX
8
BLACK
10
110.999818
20
176.751040
70
0
0
VERTEX
8
BLACK
10
110.999818
20
175.250855
70
0
0
VERTEX
8
BLACK
10
98.999921
20
173.750669
70
0
0
VERTEX
8
BLACK
10
98.999921
20
178.251226
70
0
0
VERTEX
8
BLACK
10
110.999818
20
176.751040
70
0
0
SEQEND
8
BLACK
0
POLYLINE
8
BLACK
62
7
70
0
10
0.000000
20
0.000000
66
1
0
VERTEX
8
BLACK
10
104.149833
20
175.999995
70
0
0
VERTEX
8
BLACK
10
103.999833
20
176.149994
70
0
0
VERTEX
8
BLACK
10
103.849833
20
175.999995
70
0
0
VERTEX
8
BLACK
10
103.999833
20
175.849996
70
0
0
VERTEX
8
BLACK
10
104.149833
20
175.999995
70
0
0
VERTEX
8
BLACK
10
104.149833
20
175.999995
70
0
0
SEQEND
8
BLACK
0
POLYLINE
8
BLACK
62
7
70
0
10
0.000000
20
0.000000
66
1
0
VERTEX
8
BLACK
10
104.149833
20
166.000001
70
0
0
VERTEX
8
BLACK
10
103.999833
20
166.150000
70
0
0
VERTEX
8
BLACK
10
103.849833
20
166.000001
70
0
0
VERTEX
8
BLACK
10
103.999833
20
165.850002
70
0
0
VERTEX
8
BLACK
10
104.149833
20
166.000001
70
0
0
VERTEX
8
BLACK
10
104.149833
20
166.000001
70
0
0
SEQEND
8
BLACK
0
POLYLINE
8
BLACK
62
7
70
0
10
0.000000
20
0.000000
66
1
0
VERTEX
8
BLACK
10
104.149833
20
156.000034
70
0
0
VERTEX
8
BLACK
10
103.999833
20
156.150032
70
0
0
VERTEX
8
BLACK
10
103.849833
20
156.000034
70
0
0
VERTEX
8
BLACK
10
103.999833
20
155.850035
70
0
0
VERTEX
8
BLACK
10
104.149833
20
156.000034
70
0
0
VERTEX
8
BLACK
10
104.149833
20
156.000034
70
0
0
SEQEND
8
BLACK
0
POLYLINE
8
BLACK
62
7
70
0
10
0.000000
20
0.000000
66
1
0
VERTEX
8
BLACK
10
104.149833
20
146.000040
70
0
0
VERTEX
8
BLACK
10
103.999833
20
146.150039
70
0
0
VERTEX
8
BLACK
10
103.849833
20
146.000040
70
0
0
VERTEX
8
BLACK
10
103.999833
20
145.850041
70
0
0
VERTEX
8
BLACK
10
104.149833
20
146.000040
70
0
0
VERTEX
8
BLACK
10
104.149833
20
146.000040
70
0
0
SEQEND
8
BLACK
0
POLYLINE
8
BLACK
62
7
70
0
10
0.000000
20
0.000000
66
1
0
VERTEX
8
BLACK
10
104.149833
20
136.000046
70
0
0
VERTEX
8
BLACK
10
103.999833
20
136.150045
70
0
0
VERTEX
8
BLACK
10
103.849833
20
136.000046
70
0
0
VERTEX
8
BLACK
10
103.999833
20
135.850047
70
0
0
VERTEX
8
BLACK
10
104.149833
20
136.000046
70
0
0
VERTEX
8
BLACK
10
104.149833
20
136.000046
70
0
0
SEQEND
8
BLACK
0
POLYLINE
8
BLACK
62
7
70
0
10
0.000000
20
0.000000
66
1
0
VERTEX
8
BLACK
10
104.149833
20
126.000052
70
0
0
VERTEX
8
BLACK
10
103.999833
20
126.150051
70
0
0
VERTEX
8
BLACK
10
103.849833
20
126.000052
70
0
0
VERTEX
8
BLACK
10
103.999833
20
125.850053
70
0
0
VERTEX
8
BLACK
10
104.149833
20
126.000052
70
0
0
VERTEX
8
BLACK
10
104.149833
20
126.000052
70
0
0
SEQEND
8
BLACK
0
POLYLINE
8
BLACK
62
7
70
0
10
0.000000
20
0.000000
66
1
0
VERTEX
8
BLACK
10
104.149833
20
141.000056
70
0
0
VERTEX
8
BLACK
10
103.999833
20
141.150055
70
0
0
VERTEX
8
BLACK
10
103.849833
20
141.000056
70
0
0
VERTEX
8
BLACK
10
103.999833
20
140.850038
70
0
0
VERTEX
8
BLACK
10
104.149833
20
141.000056
70
0
0
VERTEX
8
BLACK
10
104.149833
20
141.000056
70
0
0
SEQEND
8
BLACK
0
POLYLINE
8
BLACK
62
7
70
0
10
0.000000
20
0.000000
66
1
0
VERTEX
8
BLACK
10
104.149833
20
131.000062
70
0
0
VERTEX
8
BLACK
10
103.999833
20
131.150061
70
0
0
VERTEX
8
BLACK
10
103.849833
20
131.000062
70
0
0
VERTEX
8
BLACK
10
103.999833
20
130.850064
70
0
0
VERTEX
8
BLACK
10
104.149833
20
131.000062
70
0
0
VERTEX
8
BLACK
10
104.149833
20
131.000062
70
0
0
SEQEND
8
BLACK
0
POLYLINE
8
BLACK
62
7
70
0
10
0.000000
20
0.000000
66
1
0
VERTEX
8
BLACK
10
104.149833
20
121.000068
70
0
0
VERTEX
8
BLACK
10
103.999833
20
121.150067
70
0
0
VERTEX
8
BLACK
10
103.849833
20
121.000068
70
0
0
VERTEX
8
BLACK
10
103.999833
20
120.850070
70
0
0
VERTEX
8
BLACK
10
104.149833
20
121.000068
70
0
0
VERTEX
8
BLACK
10
104.149833
20
121.000068
70
0
0
SEQEND
8
BLACK
0
POLYLINE
8
BLACK
62
7
70
0
10
0.000000
20
0.000000
66
1
0
VERTEX
8
BLACK
10
104.149833
20
171.000011
70
0
0
VERTEX
8
BLACK
10
103.999833
20
171.150010
70
0
0
VERTEX
8
BLACK
10
103.849833
20
171.000011
70
0
0
VERTEX
8
BLACK
10
103.999833
20
170.850013
70
0
0
VERTEX
8
BLACK
10
104.149833
20
171.000011
70
0
0
VERTEX
8
BLACK
10
104.149833
20
171.000011
70
0
0
SEQEND
8
BLACK
0
POLYLINE
8
BLACK
62
7
70
0
10
0.000000
20
0.000000
66
1
0
VERTEX
8
BLACK
10
104.149833
20
161.000017
70
0
0
VERTEX
8
BLACK
10
103.999833
20
161.150016
70
0
0
VERTEX
8
BLACK
10
103.849833
20
161.000017
70
0
0
VERTEX
8
BLACK
10
103.999833
20
160.850019
70
0
0
VERTEX
8
BLACK
10
104.149833
20
161.000017
70
0
0
VERTEX
8
BLACK
10
104.149833
20
161.000017
70
0
0
SEQEND
8
BLACK
0
POLYLINE
8
BLACK
62
7
70
0
10
0.000000
20
0.000000
66
1
0
VERTEX
8
BLACK
10
104.149833
20
151.000023
70
0
0
VERTEX
8
BLACK
10
103.999833
20
151.150022
70
0
0
VERTEX
8
BLACK
10
103.849833
20
151.000023
70
0
0
VERTEX
8
BLACK
10
103.999833
20
150.850025
70
0
0
VERTEX
8
BLACK
10
104.149833
20
151.000023
70
0
0
VERTEX
8
BLACK
10
104.149833
20
151.000023
70
0
0
SEQEND
8
BLACK
0
POLYLINE
8
BLACK
62
7
70
0
10
0.000000
20
0.000000
66
1
0
VERTEX
8
BLACK
10
98.999921
20
118.749155
70
0
0
VERTEX
8
BLACK
10
98.999921
20
123.249712
70
0
0
VERTEX
8
BLACK
10
110.999818
20
121.749526
70
0
0
VERTEX
8
BLACK
10
110.999818
20
120.249341
70
0
0
VERTEX
8
BLACK
10
98.999921
20
118.749155
70
0
0
SEQEND
8
BLACK
0
POLYLINE
8
BLACK
62
7
70
0
10
0.000000
20
0.000000
66
1
0
VERTEX
8
BLACK
10
98.999921
20
138.248922
70
0
0
VERTEX
8
BLACK
10
110.999818
20
136.748736
70
0
0
VERTEX
8
BLACK
10
110.999818
20
135.251197
70
0
0
VERTEX
8
BLACK
10
98.999921
20
133.751011
70
0
0
VERTEX
8
BLACK
10
98.999921
20
138.248922
70
0
0
SEQEND
8
BLACK
 0 
ENDSEC
 0 
EOF